<?xml version="1.0" encoding="iso-8859-1"?>
<!-- Uploaded to: SVG Repo, www.svgrepo.com, Generator: SVG Repo Mixer Tools -->
<svg version="1.1" id="Layer_1" xmlns="http://www.w3.org/2000/svg" xmlns:xlink="http://www.w3.org/1999/xlink" 
	 viewBox="0 0 512 512" xml:space="preserve">
<path style="fill:#ECF0F1;" d="M42.93,251.195h6.496c-17.939,0-32.481,14.542-32.481,32.481l0,0
	c0,17.939,14.542,32.481,32.481,32.481h143.063l-40.242,90.009c-6.99,26.087,8.856,53.064,34.84,60.054v0.082
	c11.692,3.223,24.139-4.201,27.363-16.234l19.872-43.051c7.768-16.828,15.408-33.728,22.18-50.982
	c10.304-26.249,32.1-46.61,59.446-54.926l0,0c15.346-4.667,31.299-7.039,47.339-7.039h13.064V78.4h-15.836
	c-14.188,0-28.282-2.287-41.742-6.774l-25.618-8.539c-13.459-4.487-27.554-6.774-41.742-6.774H75.409
	c-17.939,0-32.481,14.542-32.481,32.481l0,0c0,17.939,14.542,32.481,32.481,32.481H62.417c-17.939,0-32.481,14.542-32.481,32.481
	l0,0c0,17.939,14.542,32.481,32.481,32.481H42.93c-17.939-0.001-32.481,14.541-32.481,32.479l0,0
	C10.449,236.653,24.991,251.195,42.93,251.195z"/>
<rect x="376.351" y="45.275" style="fill:#DF5F4E;" width="125.2" height="285.832"/>
<circle style="fill:#ECF0F1;" cx="438.951" cy="113.151" r="26.122"/>
<g>
	<path style="fill:#231F20;" d="M501.551,34.474h-125.2c-5.77,0-10.637,5.026-10.637,10.797v22.64h-5.2
		c-13.089,0-26.021-2.079-38.437-6.217l-25.619-8.476c-14.552-4.853-29.707-7.25-45.045-7.25H75.409
		c-23.67,0-42.929,19.206-42.929,42.877c0,9.571,3.152,18.394,8.467,25.54c-1.125,1.071-2.008,2.376-2.568,3.857
		c-11.384,7.728-18.892,20.751-18.892,35.517c0,9.28,2.959,17.877,7.984,24.906C11.417,184.885,0,200.492,0,218.716
		c0,14.585,7.31,27.493,18.46,35.255c-7.407,7.718-11.964,18.408-11.964,29.924c0,23.671,19.259,43.149,42.93,43.149h126.946
		l-33.665,75.075c-0.226,0.505-0.412,0.916-0.554,1.451c-8.355,31.181,9.939,63.329,40.886,72.418
		c0.41,0.171,0.834,0.292,1.272,0.413c2.764,0.762,5.581,1.125,8.392,1.125c5.553,0,11.08-1.479,16.111-4.359
		c7.423-4.25,13.013-11.304,15.461-19.452c0,0,34.754-75.523,41.953-93.863c9.264-23.6,28.495-41.598,52.76-48.978
		c14.375-4.371,29.279-6.818,44.299-6.818h2.427v27.039c0,5.77,4.866,10.577,10.637,10.577h125.2c5.77,0,10.449-4.807,10.449-10.577
		V45.27C512,39.5,507.321,34.474,501.551,34.474z M363.288,283.16c-17.083,0-34.032,2.751-50.38,7.721
		c-30.416,9.25-54.521,31.636-66.134,61.22c-6.992,17.815-41.813,93.56-41.813,93.56c-0.25,0.54-0.452,1.114-0.606,1.689
		c-0.858,3.204-3.019,6.004-5.927,7.67c-2.431,1.392-5.13,1.878-7.689,1.407c-0.306-0.114-0.62-0.212-0.938-0.299
		c-20.385-5.483-32.654-26.231-27.657-46.5l39.884-89.205c1.446-3.234,1.155-6.758-0.771-9.729
		c-1.926-2.972-5.227-4.545-8.768-4.545H49.426c-12.148,0-22.032-10.12-22.032-22.268c0-10.35,7.183-19.528,16.819-21.618h27.949
		c5.77,0,10.449-4.686,10.449-10.456c0-5.77-4.679-10.453-10.449-10.453l-29.232-1.047c-12.148,0-22.032-9.663-22.032-21.811
		c0-11.146,8.328-20.187,19.083-21.636c0.936,0.275,47.771,0.604,47.771,0.604c5.77,0,10.449-4.679,10.449-10.449
		s-4.679-10.449-10.449-10.449c0,0-24.068-0.715-25.335-0.715c-12.148,0-22.032-9.755-22.032-21.903
		c0-10.35,7.183-19.163,16.819-21.253h50.035c5.77,0,10.449-4.686,10.449-10.456s-4.679-10.453-10.449-10.453
		c0,0-30.564-0.805-31.831-0.805c-12.148,0-22.031-9.91-22.031-22.058s9.883-22.058,22.031-22.058h176.005
		c13.087,0,26.019,2.047,38.437,6.187l25.619,8.492c14.55,4.851,29.705,7.264,45.044,7.264h5.202v194.351h-2.426V283.16z
		 M491.102,320.776h-104.49V55.372h104.49V320.776z"/>
	<path style="fill:#231F20;" d="M438.951,149.725c20.165,0,36.571-16.407,36.571-36.574s-16.406-36.572-36.571-36.572
		s-36.571,16.406-36.571,36.572S418.786,149.725,438.951,149.725z M438.951,97.477c8.642,0,15.673,7.031,15.673,15.675
		c0,8.643-7.031,15.676-15.673,15.676c-8.642,0-15.673-7.031-15.673-15.676C423.278,104.509,430.308,97.477,438.951,97.477z"/>
</g>
</svg>