<svg id="Layer_1" data-name="Layer 1" xmlns="http://www.w3.org/2000/svg" viewBox="0 0 139.12 215.39"><defs><style>.cls-1{fill:#393d39;}.cls-2{fill:#373c37;}.cls-3{fill:#a8a9a8;}.cls-4{fill:#a5a6a5;}.cls-5{fill:#91dce7;}.cls-6{fill:#48a956;}.cls-7{fill:#dcdddc;}</style></defs><path class="cls-1" d="M111.88,179.05l5.85.06,6.13-.25h7.63l4.5.24c2.13.21,2.91,1.34,2.7,3.49a28.53,28.53,0,0,0,.24,4.31l.18,1.78q0,8.44,0,16.89l-.19,1.78c0,.27-.1.54-.12.81-.38,5-.57,5.16-5.53,5.94l-2.34.19-6.94.29-3.41.24q-19.7,0-39.38.08c-1.9,0-3.8.14-5.7.21l-4,.27H51.94l-11-.36-2.11-1.8c-.18-2.18-.35-4.37-.53-6.56q-.06-3.76-.13-7.54,0-5.82,0-11.63l.21-3.71,1-3.31,1.15-1c2.41-.22,4.82-.55,7.23-.63,2.13-.08,4.26.12,6.39.19H68.36V157.69q0-6.56-.1-13.11c-.05-1.63-.09-3.26-.14-4.89.08-8.69.28-17.39.23-26.08-.11-21.39-.35-42.78-.49-64.17a44.89,44.89,0,0,1,.5-7c.47-3.12,2.2-4.48,5.35-4.58l5.43-.12,22.49,1L103.86,41l.42,1.72q0,9.81,0,19.62v7.62l.18,5.35q.18,4.13.38,8.27,0,9,0,18l-.39,14.8q-.08,12.21-.16,24.42L104,152.33l.06,6.8c.06.78.13,1.55.19,2.33q.09,8.39.16,16.79c.36.36.73,1,1.09,1C107.62,179.3,109.75,179.15,111.88,179.05Zm20.49,6c-9.48.33-18.62.65-27.76,1-4,.12-5.71-1.11-5.85-5-.36-9.76-.46-19.54-.64-29.31-.05-2.36,0-4.72,0-7.08q0-17.82-.09-35.65Q98,95.43,97.9,82c-.05-7-.18-14-.23-20.92,0-5.16,0-10.31,0-16-7.11-.21-14-.46-20.86-.5-.5,0-1.44,1.42-1.46,2.2-.17,5.27-.18,10.53-.19,15.8,0,20.78,0,41.56,0,62.34q.06,24.78.29,49.56c0,2.44.47,4.89.4,7.33-.09,3.38-1.16,4.32-4.46,4.26-7.07-.15-14.14-.39-21.21-.49a38,38,0,0,0-4.79.44c0,7.08,0,13.7,0,20.31,0,1.4.5,1.95,1.9,1.94,2.63,0,5.27.11,7.9.09,13.79-.13,27.59-.33,41.39-.4,8.61,0,17.23.14,25.85.2,3.58,0,7.15,0,10.81,0C133,200.41,132.67,193,132.37,185Z"/><path class="cls-2" d="M30,78c0-1.24.07-2.48.11-3.72q.12-8.52.25-17c.12-3.58.23-7.16.35-10.74,0-2.36,0-4.72,0-7.08l-.12-2.65L28,36.2l-10.9.34-3.81.21-1.53.15L2.8,36.35,1.22,35.12C.87,33.83.52,32.55.16,31.27L0,28.1c0-3.88,0-7.75,0-11.63,0-2.33.07-4.66.1-7L.7,2.37,2.8.56,14.35.19H32.88l2.17,0L58.37,0l10,0,4.8.16,6.12.34,3.14.21L85.86,1l7,.29,2.32.2c5.06.81,5.06.81,5.66,6.75.06.59.13,1.19.19,1.78l0,16.34-.22,2.33q-.54,3.64-1.1,7.29c-1.17.1-2.35.26-3.52.27-5.69.07-11.37.1-17.06.15H66.36c-.27,8.54-.79,16.67-.72,24.8.13,16.48.66,33,.87,49.45.12,9.68-.05,19.37-.09,29l-.27,8.15v4.33q0,10.63,0,21.27l-.33,1.12c-1.62,1-3.14,2.28-4.9,2.78-2.12.6-4.44.5-6.68.7l-13.9.06L34,177.78l-1.12-.5a3.35,3.35,0,0,0-.36-.21c-.82-2.33-2-4.6-2.36-7-.42-3-.11-6.16-.18-9.24-.09-3.79-.26-7.58-.39-11.37V131q.24-4.12.46-8.25l.09-8.64V97.72L30,95.1Q30,86.55,30,78ZM7.3,30.09c3.67,0,7.58.07,11.5,0,4.89-.1,9.78-.36,14.66-.47,3.14-.07,4.28,1,4.28,4.17,0,2.71-.45,5.42-.46,8.13q0,32.54,0,65.07c0,20.42,0,40.84-.13,61.27,0,2.4.66,3.16,3.07,3,5.25-.33,10.5-.39,15.76-.58,3.45-.13,3.64-.29,3.58-3.81-.12-7.07-.49-14.13-.41-21.19.08-6.51.84-13,.89-19.52.07-8.51-.41-17-.39-25.55,0-11.24.34-22.48.41-33.72,0-3.8-.37-7.6-.43-11.4,0-1.88.33-3.78.41-5.67q.28-6.47.47-12.94c.28-8.8,3.18-7.23,9.69-7.14,7.79.12,15.58.28,23.37.41.22,0,.45-.25.68-.38l.76,0c0-6.51.06-13-.08-19.53A2.87,2.87,0,0,0,93.25,8a48.85,48.85,0,0,0-7.83-.64C75.19,7.32,65,7.35,54.73,7.34q-22.47,0-44.93,0c-1.86,0-2.64.6-2.55,2.52.12,2.72,0,5.44,0,8.17Z"/><path class="cls-3" d="M98.71,37c-.06,0-.11-.13-.17-.14s-.12.08-.18.13.11.14.17.14S98.65,37.09,98.71,37Z"/><path class="cls-4" d="M30.36,57.26q-.12,8.52-.25,17Q30.23,65.78,30.36,57.26Z"/><path class="cls-4" d="M30.11,97.72v0Z"/><path class="cls-3" d="M104.42,116.34l.39-14.8Z"/><path class="cls-3" d="M104,152.33l.27-11.57Z"/><path class="cls-4" d="M0,16.47c0,3.88,0,7.75,0,11.63C0,24.22,0,20.35,0,16.47Z"/><path class="cls-4" d="M40.94,215l11,.36Z"/><path class="cls-3" d="M68.39,0l-10,0Z"/><path class="cls-3" d="M104.82,83.56q-.19-4.14-.38-8.27Q104.62,79.42,104.82,83.56Z"/><path class="cls-4" d="M30,122.7q-.22,4.13-.46,8.25Q29.8,126.82,30,122.7Z"/><path class="cls-3" d="M104.26,69.94v0Z"/><path class="cls-4" d="M30.7,39.44c0,2.36,0,4.72,0,7.08C30.71,44.16,30.7,41.8,30.7,39.44Z"/><path class="cls-4" d="M.7,2.37Q.42,5.93.14,9.48.41,5.93.7,2.37Z"/><path class="cls-4" d="M38.3,206.67c.18,2.19.35,4.38.53,6.56C38.65,211.05,38.48,208.86,38.3,206.67Z"/><path class="cls-3" d="M123.86,178.86l-6.13.25Z"/><path class="cls-3" d="M79.31.52,73.19.18Z"/><path class="cls-3" d="M136,179.11l-4.5-.24Z"/><path class="cls-4" d="M13.26,36.75l3.81-.21Z"/><path class="cls-4" d="M71.56,215.39l4-.27Z"/><path class="cls-4" d="M.16,31.27c.36,1.28.71,2.56,1.06,3.85Z"/><path class="cls-3" d="M85.86,1,82.45.73Z"/><path class="cls-4" d="M120.59,214.83l3.41-.24Z"/><path class="cls-4" d="M39.36,180.48l-1,3.31Z"/><path class="cls-4" d="M28,36.2l2.61.59Z"/><path class="cls-3" d="M100.79,28.69c.08-.78.15-1.55.22-2.33C100.94,27.14,100.87,27.91,100.79,28.69Z"/><path class="cls-3" d="M95.13,1.49l-2.32-.2Z"/><path class="cls-3" d="M35.05.18,32.88.2Z"/><path class="cls-4" d="M130.94,214.3l2.34-.19Z"/><path class="cls-3" d="M104.24,161.46c-.06-.78-.13-1.55-.19-2.33C104.11,159.91,104.18,160.68,104.24,161.46Z"/><path class="cls-3" d="M101,10c-.06-.59-.13-1.19-.19-1.78C100.85,8.83,100.92,9.43,101,10Z"/><path class="cls-3" d="M104.28,42.7,103.86,41Z"/><path class="cls-3" d="M139.11,188.69l-.18-1.78Z"/><path class="cls-3" d="M138.93,207.36l.19-1.78Z"/><path class="cls-4" d="M32.85,177.28l1.12.5Z"/><path class="cls-5" d="M132.37,185c.3,8,.58,15.4.87,23.12-3.66,0-7.23,0-10.81,0-8.62-.06-17.24-.23-25.85-.2-13.8.07-27.6.27-41.39.4-2.63,0-5.27-.12-7.9-.09-1.4,0-1.91-.54-1.9-1.94,0-6.61,0-13.23,0-20.31a38,38,0,0,1,4.79-.44c7.07.1,14.14.34,21.21.49,3.3.06,4.37-.88,4.46-4.26.07-2.44-.38-4.89-.4-7.33q-.19-24.78-.29-49.56c-.06-20.78,0-41.56,0-62.34,0-5.27,0-10.53.19-15.8,0-.78,1-2.21,1.46-2.2,6.87,0,13.75.29,20.86.5,0,5.67,0,10.82,0,16,0,7,.18,14,.23,20.92q.09,13.47.11,27,.06,17.82.09,35.65c0,2.36,0,4.72,0,7.08.18,9.77.28,19.55.64,29.31.14,3.91,1.85,5.14,5.85,5C113.75,185.66,122.89,185.34,132.37,185Z"/><path class="cls-6" d="M7.3,30.09V18c0-2.73.07-5.45,0-8.17C7.16,7.91,7.94,7.3,9.8,7.31q22.47.06,44.93,0c10.23,0,20.46,0,30.69.06A48.85,48.85,0,0,1,93.25,8a2.87,2.87,0,0,1,1.67,2.17c.14,6.5.08,13,.08,19.53l-.76,0c-.23.13-.46.38-.68.38C85.77,30,78,29.86,70.19,29.74c-6.51-.09-9.41-1.66-9.69,7.14q-.2,6.46-.47,12.94c-.08,1.89-.43,3.79-.41,5.67.06,3.8.46,7.6.43,11.4-.07,11.24-.4,22.48-.41,33.72,0,8.52.46,17,.39,25.55-.05,6.51-.81,13-.89,19.52-.08,7.06.29,14.12.41,21.19.06,3.52-.13,3.68-3.58,3.81-5.26.19-10.51.25-15.76.58-2.41.15-3.08-.61-3.07-3,.12-20.43.12-40.85.13-61.27q0-32.53,0-65.07c0-2.71.47-5.42.46-8.13,0-3.18-1.14-4.24-4.28-4.17-4.88.11-9.77.37-14.66.47C14.88,30.16,11,30.09,7.3,30.09Z"/><path class="cls-7" d="M66.15,147.85v0Z"/><path class="cls-7" d="M66.16,173.45l-.33,1.12Z"/></svg>